<mxfile host="app.diagrams.net" agent="Mozilla/5.0 (Windows NT 10.0; Win64; x64) AppleWebKit/537.36 (KHTML, like Gecko) Chrome/139.0.0.0 Safari/537.36 Edg/139.0.0.0" version="28.1.1" pages="3">
  <diagram name="ClassDiagram" id="07GQAoJ-5b6xdoRV7t7q">
    <mxGraphModel dx="4881" dy="2496" grid="1" gridSize="10" guides="1" tooltips="1" connect="1" arrows="1" fold="1" page="1" pageScale="1" pageWidth="827" pageHeight="1169" math="0" shadow="0">
      <root>
        <mxCell id="0" />
        <mxCell id="1" parent="0" />
        <mxCell id="-CUUSsOzqusKTCp6GQ_X-52" style="edgeStyle=orthogonalEdgeStyle;rounded=0;orthogonalLoop=1;jettySize=auto;html=1;" edge="1" parent="1" source="-CUUSsOzqusKTCp6GQ_X-1" target="-CUUSsOzqusKTCp6GQ_X-4">
          <mxGeometry relative="1" as="geometry" />
        </mxCell>
        <mxCell id="-CUUSsOzqusKTCp6GQ_X-1" value="ProgramPageViewModel" style="swimlane;fontStyle=1;align=center;verticalAlign=middle;childLayout=stackLayout;horizontal=1;startSize=29;horizontalStack=0;resizeParent=1;resizeParentMax=0;resizeLast=0;collapsible=0;marginBottom=0;html=1;whiteSpace=wrap;" vertex="1" parent="1">
          <mxGeometry x="290" y="-300" width="340" height="79" as="geometry" />
        </mxCell>
        <mxCell id="-CUUSsOzqusKTCp6GQ_X-87" value="ObservableCollection&amp;lt;IWorkflowStep&amp;gt; WorkflowSteps" style="text;html=1;strokeColor=none;fillColor=none;align=left;verticalAlign=middle;spacingLeft=4;spacingRight=4;overflow=hidden;rotatable=0;points=[[0,0.5],[1,0.5]];portConstraint=eastwest;whiteSpace=wrap;" vertex="1" parent="-CUUSsOzqusKTCp6GQ_X-1">
          <mxGeometry y="29" width="340" height="25" as="geometry" />
        </mxCell>
        <mxCell id="-CUUSsOzqusKTCp6GQ_X-3" value="ProgramFacade&amp;nbsp;ProgramFacade" style="text;html=1;strokeColor=none;fillColor=none;align=left;verticalAlign=middle;spacingLeft=4;spacingRight=4;overflow=hidden;rotatable=0;points=[[0,0.5],[1,0.5]];portConstraint=eastwest;whiteSpace=wrap;" vertex="1" parent="-CUUSsOzqusKTCp6GQ_X-1">
          <mxGeometry y="54" width="340" height="25" as="geometry" />
        </mxCell>
        <mxCell id="-CUUSsOzqusKTCp6GQ_X-4" value="IProgramProviderFacade" style="swimlane;fontStyle=1;align=center;verticalAlign=middle;childLayout=stackLayout;horizontal=1;startSize=29;horizontalStack=0;resizeParent=1;resizeParentMax=0;resizeLast=0;collapsible=0;marginBottom=0;html=1;whiteSpace=wrap;" vertex="1" parent="1">
          <mxGeometry x="560" y="-160" width="310" height="54" as="geometry" />
        </mxCell>
        <mxCell id="-CUUSsOzqusKTCp6GQ_X-6" value="IProgramFacade StartProgram(Guid specificationId)" style="text;html=1;strokeColor=none;fillColor=none;align=left;verticalAlign=middle;spacingLeft=4;spacingRight=4;overflow=hidden;rotatable=0;points=[[0,0.5],[1,0.5]];portConstraint=eastwest;whiteSpace=wrap;" vertex="1" parent="-CUUSsOzqusKTCp6GQ_X-4">
          <mxGeometry y="29" width="310" height="25" as="geometry" />
        </mxCell>
        <mxCell id="-CUUSsOzqusKTCp6GQ_X-15" style="edgeStyle=orthogonalEdgeStyle;rounded=0;orthogonalLoop=1;jettySize=auto;html=1;" edge="1" parent="1" source="-CUUSsOzqusKTCp6GQ_X-8" target="-CUUSsOzqusKTCp6GQ_X-12">
          <mxGeometry relative="1" as="geometry" />
        </mxCell>
        <mxCell id="-CUUSsOzqusKTCp6GQ_X-8" value="IXtProgramProvider" style="swimlane;fontStyle=1;align=center;verticalAlign=middle;childLayout=stackLayout;horizontal=1;startSize=29;horizontalStack=0;resizeParent=1;resizeParentMax=0;resizeLast=0;collapsible=0;marginBottom=0;html=1;whiteSpace=wrap;" vertex="1" parent="1">
          <mxGeometry x="760" y="60" width="370" height="54" as="geometry" />
        </mxCell>
        <mxCell id="-CUUSsOzqusKTCp6GQ_X-10" value="IProgramMetaStorage&amp;nbsp;&amp;nbsp;_programMetaStorage" style="text;html=1;strokeColor=none;fillColor=none;align=left;verticalAlign=middle;spacingLeft=4;spacingRight=4;overflow=hidden;rotatable=0;points=[[0,0.5],[1,0.5]];portConstraint=eastwest;whiteSpace=wrap;" vertex="1" parent="-CUUSsOzqusKTCp6GQ_X-8">
          <mxGeometry y="29" width="370" height="25" as="geometry" />
        </mxCell>
        <mxCell id="-CUUSsOzqusKTCp6GQ_X-12" value="IProgramMetaStorage" style="swimlane;fontStyle=1;align=center;verticalAlign=middle;childLayout=stackLayout;horizontal=1;startSize=29;horizontalStack=0;resizeParent=1;resizeParentMax=0;resizeLast=0;collapsible=0;marginBottom=0;html=1;whiteSpace=wrap;" vertex="1" parent="1">
          <mxGeometry x="1250" y="47.5" width="270" height="79" as="geometry" />
        </mxCell>
        <mxCell id="-CUUSsOzqusKTCp6GQ_X-16" value="ILiteRepository Repository" style="text;html=1;strokeColor=none;fillColor=none;align=left;verticalAlign=middle;spacingLeft=4;spacingRight=4;overflow=hidden;rotatable=0;points=[[0,0.5],[1,0.5]];portConstraint=eastwest;whiteSpace=wrap;" vertex="1" parent="-CUUSsOzqusKTCp6GQ_X-12">
          <mxGeometry y="29" width="270" height="25" as="geometry" />
        </mxCell>
        <mxCell id="-CUUSsOzqusKTCp6GQ_X-14" value="IXtProgramSession CreateSession" style="text;html=1;strokeColor=none;fillColor=none;align=left;verticalAlign=middle;spacingLeft=4;spacingRight=4;overflow=hidden;rotatable=0;points=[[0,0.5],[1,0.5]];portConstraint=eastwest;whiteSpace=wrap;" vertex="1" parent="-CUUSsOzqusKTCp6GQ_X-12">
          <mxGeometry y="54" width="270" height="25" as="geometry" />
        </mxCell>
        <mxCell id="-CUUSsOzqusKTCp6GQ_X-25" style="edgeStyle=orthogonalEdgeStyle;rounded=0;orthogonalLoop=1;jettySize=auto;html=1;endArrow=open;endFill=0;" edge="1" parent="1" source="-CUUSsOzqusKTCp6GQ_X-17" target="-CUUSsOzqusKTCp6GQ_X-22">
          <mxGeometry relative="1" as="geometry" />
        </mxCell>
        <mxCell id="-CUUSsOzqusKTCp6GQ_X-17" value="XtProgram" style="swimlane;fontStyle=1;align=center;verticalAlign=middle;childLayout=stackLayout;horizontal=1;startSize=29;horizontalStack=0;resizeParent=1;resizeParentMax=0;resizeLast=0;collapsible=0;marginBottom=0;html=1;whiteSpace=wrap;" vertex="1" parent="1">
          <mxGeometry x="50" y="100" width="390" height="154" as="geometry" />
        </mxCell>
        <mxCell id="-CUUSsOzqusKTCp6GQ_X-20" value="XtMetadataProvider&amp;nbsp; __metadataProvider" style="text;html=1;strokeColor=none;fillColor=none;align=left;verticalAlign=middle;spacingLeft=4;spacingRight=4;overflow=hidden;rotatable=0;points=[[0,0.5],[1,0.5]];portConstraint=eastwest;whiteSpace=wrap;" vertex="1" parent="-CUUSsOzqusKTCp6GQ_X-17">
          <mxGeometry y="29" width="390" height="25" as="geometry" />
        </mxCell>
        <mxCell id="-CUUSsOzqusKTCp6GQ_X-21" value="DeviceIdentity _lastUsedDevices" style="text;html=1;strokeColor=none;fillColor=none;align=left;verticalAlign=middle;spacingLeft=4;spacingRight=4;overflow=hidden;rotatable=0;points=[[0,0.5],[1,0.5]];portConstraint=eastwest;whiteSpace=wrap;" vertex="1" parent="-CUUSsOzqusKTCp6GQ_X-17">
          <mxGeometry y="54" width="390" height="25" as="geometry" />
        </mxCell>
        <mxCell id="-CUUSsOzqusKTCp6GQ_X-46" value="XtMeasurementModelProvider __modelProvider" style="text;html=1;strokeColor=none;fillColor=none;align=left;verticalAlign=middle;spacingLeft=4;spacingRight=4;overflow=hidden;rotatable=0;points=[[0,0.5],[1,0.5]];portConstraint=eastwest;whiteSpace=wrap;" vertex="1" parent="-CUUSsOzqusKTCp6GQ_X-17">
          <mxGeometry y="79" width="390" height="25" as="geometry" />
        </mxCell>
        <mxCell id="-CUUSsOzqusKTCp6GQ_X-76" value="I&lt;span style=&quot;color: rgba(0, 0, 0, 0); font-family: monospace; font-size: 0px; text-wrap-mode: nowrap;&quot;&gt;%3CmxGraphModel%3E%3Croot%3E%3CmxCell%20id%3D%220%22%2F%3E%3CmxCell%20id%3D%221%22%20parent%3D%220%22%2F%3E%3CmxCell%20id%3D%222%22%20value%3D%22XtMeasurementModelProvider%20__modelProvider%22%20style%3D%22text%3Bhtml%3D1%3BstrokeColor%3Dnone%3BfillColor%3Dnone%3Balign%3Dleft%3BverticalAlign%3Dmiddle%3BspacingLeft%3D4%3BspacingRight%3D4%3Boverflow%3Dhidden%3Brotatable%3D0%3Bpoints%3D%5B%5B0%2C0.5%5D%2C%5B1%2C0.5%5D%5D%3BportConstraint%3Deastwest%3BwhiteSpace%3Dwrap%3B%22%20vertex%3D%221%22%20parent%3D%221%22%3E%3CmxGeometry%20x%3D%22230%22%20y%3D%22379%22%20width%3D%22390%22%20height%3D%2225%22%20as%3D%22geometry%22%2F%3E%3C%2FmxCell%3E%3C%2Froot%3E%3C%2FmxGraphModel%3E&lt;/span&gt;&lt;span style=&quot;font-weight: 700; text-align: center;&quot;&gt;XtProgramSpecification _spec&lt;/span&gt;" style="text;html=1;strokeColor=none;fillColor=none;align=left;verticalAlign=middle;spacingLeft=4;spacingRight=4;overflow=hidden;rotatable=0;points=[[0,0.5],[1,0.5]];portConstraint=eastwest;whiteSpace=wrap;" vertex="1" parent="-CUUSsOzqusKTCp6GQ_X-17">
          <mxGeometry y="104" width="390" height="25" as="geometry" />
        </mxCell>
        <mxCell id="-CUUSsOzqusKTCp6GQ_X-59" value="IReadOnlyList&amp;lt;IDataPresenter&amp;gt; ResultPresenters" style="text;html=1;strokeColor=none;fillColor=none;align=left;verticalAlign=middle;spacingLeft=4;spacingRight=4;overflow=hidden;rotatable=0;points=[[0,0.5],[1,0.5]];portConstraint=eastwest;whiteSpace=wrap;" vertex="1" parent="-CUUSsOzqusKTCp6GQ_X-17">
          <mxGeometry y="129" width="390" height="25" as="geometry" />
        </mxCell>
        <mxCell id="-CUUSsOzqusKTCp6GQ_X-33" style="edgeStyle=orthogonalEdgeStyle;rounded=0;orthogonalLoop=1;jettySize=auto;html=1;" edge="1" parent="1" source="-CUUSsOzqusKTCp6GQ_X-22" target="-CUUSsOzqusKTCp6GQ_X-30">
          <mxGeometry relative="1" as="geometry" />
        </mxCell>
        <mxCell id="-CUUSsOzqusKTCp6GQ_X-22" value="XtMetadataProvider" style="swimlane;fontStyle=1;align=center;verticalAlign=middle;childLayout=stackLayout;horizontal=1;startSize=29;horizontalStack=0;resizeParent=1;resizeParentMax=0;resizeLast=0;collapsible=0;marginBottom=0;html=1;whiteSpace=wrap;" vertex="1" parent="1">
          <mxGeometry x="315" y="570" width="355" height="104" as="geometry" />
        </mxCell>
        <mxCell id="-CUUSsOzqusKTCp6GQ_X-24" value="IXtProgramSessionReader _sessionReader" style="text;html=1;strokeColor=none;fillColor=none;align=left;verticalAlign=middle;spacingLeft=4;spacingRight=4;overflow=hidden;rotatable=0;points=[[0,0.5],[1,0.5]];portConstraint=eastwest;whiteSpace=wrap;" vertex="1" parent="-CUUSsOzqusKTCp6GQ_X-22">
          <mxGeometry y="29" width="355" height="25" as="geometry" />
        </mxCell>
        <mxCell id="-CUUSsOzqusKTCp6GQ_X-29" value="&amp;nbsp;Dictionary&amp;lt;MetadataKey, IXtMetadata&amp;gt; _metadata" style="text;html=1;strokeColor=none;fillColor=none;align=left;verticalAlign=middle;spacingLeft=4;spacingRight=4;overflow=hidden;rotatable=0;points=[[0,0.5],[1,0.5]];portConstraint=eastwest;whiteSpace=wrap;" vertex="1" parent="-CUUSsOzqusKTCp6GQ_X-22">
          <mxGeometry y="54" width="355" height="25" as="geometry" />
        </mxCell>
        <mxCell id="-CUUSsOzqusKTCp6GQ_X-34" value="IDataSourceScope _globalDataSourceScope" style="text;html=1;strokeColor=none;fillColor=none;align=left;verticalAlign=middle;spacingLeft=4;spacingRight=4;overflow=hidden;rotatable=0;points=[[0,0.5],[1,0.5]];portConstraint=eastwest;whiteSpace=wrap;" vertex="1" parent="-CUUSsOzqusKTCp6GQ_X-22">
          <mxGeometry y="79" width="355" height="25" as="geometry" />
        </mxCell>
        <mxCell id="-CUUSsOzqusKTCp6GQ_X-26" value="DataSourceScope" style="swimlane;fontStyle=1;align=center;verticalAlign=middle;childLayout=stackLayout;horizontal=1;startSize=29;horizontalStack=0;resizeParent=1;resizeParentMax=0;resizeLast=0;collapsible=0;marginBottom=0;html=1;whiteSpace=wrap;" vertex="1" parent="1">
          <mxGeometry x="300" y="790" width="380" height="54" as="geometry" />
        </mxCell>
        <mxCell id="-CUUSsOzqusKTCp6GQ_X-28" value="Dictionary&amp;lt;DataSourceKey, IDataSource&amp;gt; _dataSources" style="text;html=1;strokeColor=none;fillColor=none;align=left;verticalAlign=middle;spacingLeft=4;spacingRight=4;overflow=hidden;rotatable=0;points=[[0,0.5],[1,0.5]];portConstraint=eastwest;whiteSpace=wrap;" vertex="1" parent="-CUUSsOzqusKTCp6GQ_X-26">
          <mxGeometry y="29" width="380" height="25" as="geometry" />
        </mxCell>
        <mxCell id="-CUUSsOzqusKTCp6GQ_X-30" value="XtMetadata" style="swimlane;fontStyle=1;align=center;verticalAlign=middle;childLayout=stackLayout;horizontal=1;startSize=29;horizontalStack=0;resizeParent=1;resizeParentMax=0;resizeLast=0;collapsible=0;marginBottom=0;html=1;whiteSpace=wrap;" vertex="1" parent="1">
          <mxGeometry x="1010" y="528" width="220" height="54" as="geometry" />
        </mxCell>
        <mxCell id="-CUUSsOzqusKTCp6GQ_X-32" value="MetadataKey _metadataKey" style="text;html=1;strokeColor=none;fillColor=none;align=left;verticalAlign=middle;spacingLeft=4;spacingRight=4;overflow=hidden;rotatable=0;points=[[0,0.5],[1,0.5]];portConstraint=eastwest;whiteSpace=wrap;" vertex="1" parent="-CUUSsOzqusKTCp6GQ_X-30">
          <mxGeometry y="29" width="220" height="25" as="geometry" />
        </mxCell>
        <mxCell id="-CUUSsOzqusKTCp6GQ_X-35" style="edgeStyle=orthogonalEdgeStyle;rounded=0;orthogonalLoop=1;jettySize=auto;html=1;" edge="1" parent="1" source="-CUUSsOzqusKTCp6GQ_X-34" target="-CUUSsOzqusKTCp6GQ_X-26">
          <mxGeometry relative="1" as="geometry" />
        </mxCell>
        <mxCell id="-CUUSsOzqusKTCp6GQ_X-36" value="XtMeasurementModel" style="swimlane;fontStyle=1;align=center;verticalAlign=middle;childLayout=stackLayout;horizontal=1;startSize=29;horizontalStack=0;resizeParent=1;resizeParentMax=0;resizeLast=0;collapsible=0;marginBottom=0;html=1;whiteSpace=wrap;" vertex="1" parent="1">
          <mxGeometry x="-170.11" y="779" width="140" height="54" as="geometry" />
        </mxCell>
        <mxCell id="-CUUSsOzqusKTCp6GQ_X-38" value="stereotype property 1" style="text;html=1;strokeColor=none;fillColor=none;align=left;verticalAlign=middle;spacingLeft=4;spacingRight=4;overflow=hidden;rotatable=0;points=[[0,0.5],[1,0.5]];portConstraint=eastwest;whiteSpace=wrap;" vertex="1" parent="-CUUSsOzqusKTCp6GQ_X-36">
          <mxGeometry y="29" width="140" height="25" as="geometry" />
        </mxCell>
        <mxCell id="-CUUSsOzqusKTCp6GQ_X-39" value="XtMeasurementModelProvider" style="swimlane;fontStyle=1;align=center;verticalAlign=middle;childLayout=stackLayout;horizontal=1;startSize=29;horizontalStack=0;resizeParent=1;resizeParentMax=0;resizeLast=0;collapsible=0;marginBottom=0;html=1;whiteSpace=wrap;" vertex="1" parent="1">
          <mxGeometry x="-200.11" y="630" width="400" height="54" as="geometry" />
        </mxCell>
        <mxCell id="-CUUSsOzqusKTCp6GQ_X-41" value="Dictionary&amp;lt;Guid, IXtMeasurementModel&amp;gt; _measurementModels" style="text;html=1;strokeColor=none;fillColor=none;align=left;verticalAlign=middle;spacingLeft=4;spacingRight=4;overflow=hidden;rotatable=0;points=[[0,0.5],[1,0.5]];portConstraint=eastwest;whiteSpace=wrap;" vertex="1" parent="-CUUSsOzqusKTCp6GQ_X-39">
          <mxGeometry y="29" width="400" height="25" as="geometry" />
        </mxCell>
        <mxCell id="-CUUSsOzqusKTCp6GQ_X-42" style="edgeStyle=orthogonalEdgeStyle;rounded=0;orthogonalLoop=1;jettySize=auto;html=1;" edge="1" parent="1" source="-CUUSsOzqusKTCp6GQ_X-41" target="-CUUSsOzqusKTCp6GQ_X-36">
          <mxGeometry relative="1" as="geometry" />
        </mxCell>
        <mxCell id="-CUUSsOzqusKTCp6GQ_X-47" style="edgeStyle=orthogonalEdgeStyle;rounded=0;orthogonalLoop=1;jettySize=auto;html=1;" edge="1" parent="1" source="-CUUSsOzqusKTCp6GQ_X-46" target="-CUUSsOzqusKTCp6GQ_X-39">
          <mxGeometry relative="1" as="geometry" />
        </mxCell>
        <mxCell id="-CUUSsOzqusKTCp6GQ_X-51" style="edgeStyle=orthogonalEdgeStyle;rounded=0;orthogonalLoop=1;jettySize=auto;html=1;" edge="1" parent="1" source="-CUUSsOzqusKTCp6GQ_X-6" target="-CUUSsOzqusKTCp6GQ_X-8">
          <mxGeometry relative="1" as="geometry" />
        </mxCell>
        <mxCell id="-CUUSsOzqusKTCp6GQ_X-56" value="XtProgramSpecification" style="swimlane;fontStyle=1;align=center;verticalAlign=middle;childLayout=stackLayout;horizontal=1;startSize=29;horizontalStack=0;resizeParent=1;resizeParentMax=0;resizeLast=0;collapsible=0;marginBottom=0;html=1;whiteSpace=wrap;" vertex="1" parent="1">
          <mxGeometry x="770" y="290" width="280" height="54" as="geometry" />
        </mxCell>
        <mxCell id="-CUUSsOzqusKTCp6GQ_X-58" value="IDataPresenterDefinition[] ResultPresenters" style="text;html=1;strokeColor=none;fillColor=none;align=left;verticalAlign=middle;spacingLeft=4;spacingRight=4;overflow=hidden;rotatable=0;points=[[0,0.5],[1,0.5]];portConstraint=eastwest;whiteSpace=wrap;" vertex="1" parent="-CUUSsOzqusKTCp6GQ_X-56">
          <mxGeometry y="29" width="280" height="25" as="geometry" />
        </mxCell>
        <mxCell id="-CUUSsOzqusKTCp6GQ_X-60" style="edgeStyle=orthogonalEdgeStyle;rounded=0;orthogonalLoop=1;jettySize=auto;html=1;" edge="1" parent="1" source="-CUUSsOzqusKTCp6GQ_X-59" target="-CUUSsOzqusKTCp6GQ_X-56">
          <mxGeometry relative="1" as="geometry" />
        </mxCell>
        <mxCell id="-CUUSsOzqusKTCp6GQ_X-61" value="DataPresenterDefinition" style="swimlane;fontStyle=1;align=center;verticalAlign=middle;childLayout=stackLayout;horizontal=1;startSize=29;horizontalStack=0;resizeParent=1;resizeParentMax=0;resizeLast=0;collapsible=0;marginBottom=0;html=1;whiteSpace=wrap;" vertex="1" parent="1">
          <mxGeometry x="1240" y="290" width="230" height="54" as="geometry" />
        </mxCell>
        <mxCell id="-CUUSsOzqusKTCp6GQ_X-63" value="IDataPresenter CreatePresenter" style="text;html=1;strokeColor=none;fillColor=none;align=left;verticalAlign=middle;spacingLeft=4;spacingRight=4;overflow=hidden;rotatable=0;points=[[0,0.5],[1,0.5]];portConstraint=eastwest;whiteSpace=wrap;" vertex="1" parent="-CUUSsOzqusKTCp6GQ_X-61">
          <mxGeometry y="29" width="230" height="25" as="geometry" />
        </mxCell>
        <mxCell id="-CUUSsOzqusKTCp6GQ_X-64" style="edgeStyle=orthogonalEdgeStyle;rounded=0;orthogonalLoop=1;jettySize=auto;html=1;" edge="1" parent="1" source="-CUUSsOzqusKTCp6GQ_X-58" target="-CUUSsOzqusKTCp6GQ_X-61">
          <mxGeometry relative="1" as="geometry" />
        </mxCell>
        <mxCell id="-CUUSsOzqusKTCp6GQ_X-65" value="IDataVisualizer" style="swimlane;fontStyle=1;align=center;verticalAlign=middle;childLayout=stackLayout;horizontal=1;startSize=29;horizontalStack=0;resizeParent=1;resizeParentMax=0;resizeLast=0;collapsible=0;marginBottom=0;html=1;whiteSpace=wrap;" vertex="1" parent="1">
          <mxGeometry x="1320" y="531" width="310" height="54" as="geometry" />
        </mxCell>
        <mxCell id="-CUUSsOzqusKTCp6GQ_X-67" value="bool&amp;nbsp;HasDataToPresent" style="text;html=1;strokeColor=none;fillColor=none;align=left;verticalAlign=middle;spacingLeft=4;spacingRight=4;overflow=hidden;rotatable=0;points=[[0,0.5],[1,0.5]];portConstraint=eastwest;whiteSpace=wrap;" vertex="1" parent="-CUUSsOzqusKTCp6GQ_X-65">
          <mxGeometry y="29" width="310" height="25" as="geometry" />
        </mxCell>
        <mxCell id="-CUUSsOzqusKTCp6GQ_X-68" value="DataPresenter" style="swimlane;fontStyle=1;align=center;verticalAlign=middle;childLayout=stackLayout;horizontal=1;startSize=29;horizontalStack=0;resizeParent=1;resizeParentMax=0;resizeLast=0;collapsible=0;marginBottom=0;html=1;whiteSpace=wrap;" vertex="1" parent="1">
          <mxGeometry x="1270" y="400" width="320" height="54" as="geometry" />
        </mxCell>
        <mxCell id="-CUUSsOzqusKTCp6GQ_X-70" value="IReadOnlyCollection&amp;lt;IDataVisualizer&amp;gt; DataVisualizers" style="text;html=1;strokeColor=none;fillColor=none;align=left;verticalAlign=middle;spacingLeft=4;spacingRight=4;overflow=hidden;rotatable=0;points=[[0,0.5],[1,0.5]];portConstraint=eastwest;whiteSpace=wrap;" vertex="1" parent="-CUUSsOzqusKTCp6GQ_X-68">
          <mxGeometry y="29" width="320" height="25" as="geometry" />
        </mxCell>
        <mxCell id="-CUUSsOzqusKTCp6GQ_X-75" style="edgeStyle=orthogonalEdgeStyle;rounded=0;orthogonalLoop=1;jettySize=auto;html=1;" edge="1" parent="1" source="-CUUSsOzqusKTCp6GQ_X-70" target="-CUUSsOzqusKTCp6GQ_X-65">
          <mxGeometry relative="1" as="geometry" />
        </mxCell>
        <mxCell id="-CUUSsOzqusKTCp6GQ_X-77" value="ProgramFacade" style="swimlane;fontStyle=1;align=center;verticalAlign=middle;childLayout=stackLayout;horizontal=1;startSize=29;horizontalStack=0;resizeParent=1;resizeParentMax=0;resizeLast=0;collapsible=0;marginBottom=0;html=1;whiteSpace=wrap;" vertex="1" parent="1">
          <mxGeometry x="130" y="-70" width="250" height="54" as="geometry" />
        </mxCell>
        <mxCell id="-CUUSsOzqusKTCp6GQ_X-79" value="&lt;span style=&quot;font-weight: 700; text-align: center;&quot;&gt;XtProgram&amp;nbsp;&lt;/span&gt;&lt;b&gt;_xtProgram&lt;/b&gt;" style="text;html=1;strokeColor=none;fillColor=none;align=left;verticalAlign=middle;spacingLeft=4;spacingRight=4;overflow=hidden;rotatable=0;points=[[0,0.5],[1,0.5]];portConstraint=eastwest;whiteSpace=wrap;" vertex="1" parent="-CUUSsOzqusKTCp6GQ_X-77">
          <mxGeometry y="29" width="250" height="25" as="geometry" />
        </mxCell>
        <mxCell id="-CUUSsOzqusKTCp6GQ_X-80" style="edgeStyle=orthogonalEdgeStyle;rounded=0;orthogonalLoop=1;jettySize=auto;html=1;" edge="1" parent="1" source="-CUUSsOzqusKTCp6GQ_X-79" target="-CUUSsOzqusKTCp6GQ_X-17">
          <mxGeometry relative="1" as="geometry" />
        </mxCell>
        <mxCell id="-CUUSsOzqusKTCp6GQ_X-81" style="edgeStyle=orthogonalEdgeStyle;rounded=0;orthogonalLoop=1;jettySize=auto;html=1;entryX=0.653;entryY=0.086;entryDx=0;entryDy=0;entryPerimeter=0;" edge="1" parent="1" source="-CUUSsOzqusKTCp6GQ_X-3" target="-CUUSsOzqusKTCp6GQ_X-77">
          <mxGeometry relative="1" as="geometry" />
        </mxCell>
        <mxCell id="-CUUSsOzqusKTCp6GQ_X-82" value="IWorkflowStep" style="swimlane;fontStyle=1;align=center;verticalAlign=middle;childLayout=stackLayout;horizontal=1;startSize=29;horizontalStack=0;resizeParent=1;resizeParentMax=0;resizeLast=0;collapsible=0;marginBottom=0;html=1;whiteSpace=wrap;" vertex="1" parent="1">
          <mxGeometry x="-640" y="-286" width="280" height="54" as="geometry" />
        </mxCell>
        <mxCell id="-CUUSsOzqusKTCp6GQ_X-84" value="bool&amp;nbsp;IsActive" style="text;html=1;strokeColor=none;fillColor=none;align=left;verticalAlign=middle;spacingLeft=4;spacingRight=4;overflow=hidden;rotatable=0;points=[[0,0.5],[1,0.5]];portConstraint=eastwest;whiteSpace=wrap;" vertex="1" parent="-CUUSsOzqusKTCp6GQ_X-82">
          <mxGeometry y="29" width="280" height="25" as="geometry" />
        </mxCell>
        <mxCell id="-CUUSsOzqusKTCp6GQ_X-88" style="edgeStyle=orthogonalEdgeStyle;rounded=0;orthogonalLoop=1;jettySize=auto;html=1;" edge="1" parent="1" source="-CUUSsOzqusKTCp6GQ_X-87" target="-CUUSsOzqusKTCp6GQ_X-82">
          <mxGeometry relative="1" as="geometry" />
        </mxCell>
        <mxCell id="-CUUSsOzqusKTCp6GQ_X-95" style="edgeStyle=orthogonalEdgeStyle;rounded=0;orthogonalLoop=1;jettySize=auto;html=1;endArrow=block;endFill=0;" edge="1" parent="1" source="-CUUSsOzqusKTCp6GQ_X-89" target="-CUUSsOzqusKTCp6GQ_X-82">
          <mxGeometry relative="1" as="geometry">
            <Array as="points">
              <mxPoint x="-759" y="-198.5" />
              <mxPoint x="-500" y="-198.5" />
            </Array>
          </mxGeometry>
        </mxCell>
        <mxCell id="-CUUSsOzqusKTCp6GQ_X-89" value="MetadataStepViewModel" style="swimlane;fontStyle=1;align=center;verticalAlign=middle;childLayout=stackLayout;horizontal=1;startSize=29;horizontalStack=0;resizeParent=1;resizeParentMax=0;resizeLast=0;collapsible=0;marginBottom=0;html=1;whiteSpace=wrap;" vertex="1" parent="1">
          <mxGeometry x="-980" y="-78.5" width="460" height="79" as="geometry" />
        </mxCell>
        <mxCell id="-CUUSsOzqusKTCp6GQ_X-101" value="&lt;span style=&quot;text-wrap-mode: nowrap;&quot;&gt;ObservableCollection&amp;lt;MetadataColumnViewModel&amp;gt; MetadataColumnViewModels&lt;/span&gt;" style="text;html=1;strokeColor=none;fillColor=none;align=left;verticalAlign=middle;spacingLeft=4;spacingRight=4;overflow=hidden;rotatable=0;points=[[0,0.5],[1,0.5]];portConstraint=eastwest;whiteSpace=wrap;" vertex="1" parent="-CUUSsOzqusKTCp6GQ_X-89">
          <mxGeometry y="29" width="460" height="25" as="geometry" />
        </mxCell>
        <mxCell id="-CUUSsOzqusKTCp6GQ_X-100" value="SideMenuViewModelBase GuideMenuViewModel" style="text;html=1;strokeColor=none;fillColor=none;align=left;verticalAlign=middle;spacingLeft=4;spacingRight=4;overflow=hidden;rotatable=0;points=[[0,0.5],[1,0.5]];portConstraint=eastwest;whiteSpace=wrap;" vertex="1" parent="-CUUSsOzqusKTCp6GQ_X-89">
          <mxGeometry y="54" width="460" height="25" as="geometry" />
        </mxCell>
        <mxCell id="-CUUSsOzqusKTCp6GQ_X-98" style="edgeStyle=orthogonalEdgeStyle;rounded=0;orthogonalLoop=1;jettySize=auto;html=1;endArrow=block;endFill=0;" edge="1" parent="1" source="-CUUSsOzqusKTCp6GQ_X-92" target="-CUUSsOzqusKTCp6GQ_X-82">
          <mxGeometry relative="1" as="geometry">
            <Array as="points">
              <mxPoint x="-585" y="-198.5" />
              <mxPoint x="-500" y="-198.5" />
            </Array>
          </mxGeometry>
        </mxCell>
        <mxCell id="-CUUSsOzqusKTCp6GQ_X-92" value="SetupStepViewModel" style="swimlane;fontStyle=1;align=center;verticalAlign=middle;childLayout=stackLayout;horizontal=1;startSize=29;horizontalStack=0;resizeParent=1;resizeParentMax=0;resizeLast=0;collapsible=0;marginBottom=0;html=1;whiteSpace=wrap;" vertex="1" parent="1">
          <mxGeometry x="-660" y="-171" width="150" height="54" as="geometry" />
        </mxCell>
        <mxCell id="-CUUSsOzqusKTCp6GQ_X-96" style="edgeStyle=orthogonalEdgeStyle;rounded=0;orthogonalLoop=1;jettySize=auto;html=1;endArrow=block;endFill=0;" edge="1" parent="1" source="-CUUSsOzqusKTCp6GQ_X-93" target="-CUUSsOzqusKTCp6GQ_X-82">
          <mxGeometry relative="1" as="geometry">
            <Array as="points">
              <mxPoint x="-225" y="-198.5" />
              <mxPoint x="-500" y="-198.5" />
            </Array>
          </mxGeometry>
        </mxCell>
        <mxCell id="-CUUSsOzqusKTCp6GQ_X-93" value="ResultStepViewModel" style="swimlane;fontStyle=1;align=center;verticalAlign=middle;childLayout=stackLayout;horizontal=1;startSize=29;horizontalStack=0;resizeParent=1;resizeParentMax=0;resizeLast=0;collapsible=0;marginBottom=0;html=1;whiteSpace=wrap;" vertex="1" parent="1">
          <mxGeometry x="-310" y="-171" width="170" height="54" as="geometry" />
        </mxCell>
        <mxCell id="-CUUSsOzqusKTCp6GQ_X-97" style="edgeStyle=orthogonalEdgeStyle;rounded=0;orthogonalLoop=1;jettySize=auto;html=1;endArrow=block;endFill=0;" edge="1" parent="1" source="-CUUSsOzqusKTCp6GQ_X-94" target="-CUUSsOzqusKTCp6GQ_X-82">
          <mxGeometry relative="1" as="geometry">
            <Array as="points">
              <mxPoint x="-415" y="-198.5" />
              <mxPoint x="-500" y="-198.5" />
            </Array>
          </mxGeometry>
        </mxCell>
        <mxCell id="-CUUSsOzqusKTCp6GQ_X-94" value="MeasureStepViewModel" style="swimlane;fontStyle=1;align=center;verticalAlign=middle;childLayout=stackLayout;horizontal=1;startSize=29;horizontalStack=0;resizeParent=1;resizeParentMax=0;resizeLast=0;collapsible=0;marginBottom=0;html=1;whiteSpace=wrap;" vertex="1" parent="1">
          <mxGeometry x="-500" y="-171" width="170" height="54" as="geometry" />
        </mxCell>
      </root>
    </mxGraphModel>
  </diagram>
  <diagram id="2iAzdNlLHqkc2gnFOITl" name="SequenceDiagram">
    <mxGraphModel dx="968" dy="398" grid="1" gridSize="10" guides="1" tooltips="1" connect="1" arrows="1" fold="1" page="1" pageScale="1" pageWidth="827" pageHeight="1169" math="0" shadow="0">
      <root>
        <mxCell id="0" />
        <mxCell id="1" parent="0" />
        <mxCell id="eX9onKm18eareOyjnxFs-3" style="edgeStyle=elbowEdgeStyle;rounded=0;orthogonalLoop=1;jettySize=auto;html=1;elbow=vertical;curved=0;" edge="1" parent="1" source="eX9onKm18eareOyjnxFs-1" target="eX9onKm18eareOyjnxFs-2">
          <mxGeometry relative="1" as="geometry" />
        </mxCell>
        <mxCell id="eX9onKm18eareOyjnxFs-4" value="OpenProgram" style="edgeLabel;html=1;align=center;verticalAlign=middle;resizable=0;points=[];" vertex="1" connectable="0" parent="eX9onKm18eareOyjnxFs-3">
          <mxGeometry x="-0.0254" y="2" relative="1" as="geometry">
            <mxPoint as="offset" />
          </mxGeometry>
        </mxCell>
        <mxCell id="eX9onKm18eareOyjnxFs-1" value="MainMenuButtonsPopupViewModel" style="shape=umlLifeline;perimeter=lifelinePerimeter;whiteSpace=wrap;html=1;container=1;dropTarget=0;collapsible=0;recursiveResize=0;outlineConnect=0;portConstraint=eastwest;newEdgeStyle={&quot;edgeStyle&quot;:&quot;elbowEdgeStyle&quot;,&quot;elbow&quot;:&quot;vertical&quot;,&quot;curved&quot;:0,&quot;rounded&quot;:0};" vertex="1" parent="1">
          <mxGeometry x="70" y="50" width="230" height="300" as="geometry" />
        </mxCell>
        <mxCell id="eX9onKm18eareOyjnxFs-2" value="ProgramPageViewModel" style="shape=umlLifeline;perimeter=lifelinePerimeter;whiteSpace=wrap;html=1;container=1;dropTarget=0;collapsible=0;recursiveResize=0;outlineConnect=0;portConstraint=eastwest;newEdgeStyle={&quot;edgeStyle&quot;:&quot;elbowEdgeStyle&quot;,&quot;elbow&quot;:&quot;vertical&quot;,&quot;curved&quot;:0,&quot;rounded&quot;:0};" vertex="1" parent="1">
          <mxGeometry x="360" y="50" width="150" height="300" as="geometry" />
        </mxCell>
        <mxCell id="eX9onKm18eareOyjnxFs-5" value="XtProgram" style="shape=umlLifeline;perimeter=lifelinePerimeter;whiteSpace=wrap;html=1;container=1;dropTarget=0;collapsible=0;recursiveResize=0;outlineConnect=0;portConstraint=eastwest;newEdgeStyle={&quot;curved&quot;:0,&quot;rounded&quot;:0};" vertex="1" parent="1">
          <mxGeometry x="630" y="50" width="100" height="300" as="geometry" />
        </mxCell>
      </root>
    </mxGraphModel>
  </diagram>
  <diagram id="h0E26nr1PbzfBnKHNJE3" name="DB Design">
    <mxGraphModel dx="2711" dy="2382" grid="1" gridSize="10" guides="1" tooltips="1" connect="1" arrows="1" fold="1" page="1" pageScale="1" pageWidth="827" pageHeight="1169" math="0" shadow="0">
      <root>
        <mxCell id="0" />
        <mxCell id="1" parent="0" />
        <mxCell id="qA75HR39hsxsS02LZcgE-2" value="IXtProgramSession" style="swimlane;fontStyle=1;align=center;verticalAlign=middle;childLayout=stackLayout;horizontal=1;startSize=29;horizontalStack=0;resizeParent=1;resizeParentMax=0;resizeLast=0;collapsible=0;marginBottom=0;html=1;whiteSpace=wrap;" vertex="1" parent="1">
          <mxGeometry x="60" y="60" width="140" height="79" as="geometry" />
        </mxCell>
        <mxCell id="qA75HR39hsxsS02LZcgE-4" value="Guid SessionId" style="text;html=1;strokeColor=none;fillColor=none;align=left;verticalAlign=middle;spacingLeft=4;spacingRight=4;overflow=hidden;rotatable=0;points=[[0,0.5],[1,0.5]];portConstraint=eastwest;whiteSpace=wrap;" vertex="1" parent="qA75HR39hsxsS02LZcgE-2">
          <mxGeometry y="29" width="140" height="25" as="geometry" />
        </mxCell>
        <mxCell id="qA75HR39hsxsS02LZcgE-15" value="Guid SpecificationId" style="text;html=1;strokeColor=none;fillColor=none;align=left;verticalAlign=middle;spacingLeft=4;spacingRight=4;overflow=hidden;rotatable=0;points=[[0,0.5],[1,0.5]];portConstraint=eastwest;whiteSpace=wrap;" vertex="1" parent="qA75HR39hsxsS02LZcgE-2">
          <mxGeometry y="54" width="140" height="25" as="geometry" />
        </mxCell>
        <mxCell id="qA75HR39hsxsS02LZcgE-5" value="IXtProgramSpecification" style="swimlane;fontStyle=1;align=center;verticalAlign=middle;childLayout=stackLayout;horizontal=1;startSize=29;horizontalStack=0;resizeParent=1;resizeParentMax=0;resizeLast=0;collapsible=0;marginBottom=0;html=1;whiteSpace=wrap;" vertex="1" parent="1">
          <mxGeometry x="270" y="600" width="230" height="104" as="geometry" />
        </mxCell>
        <mxCell id="qA75HR39hsxsS02LZcgE-7" value="Guid _id" style="text;html=1;strokeColor=none;fillColor=none;align=left;verticalAlign=middle;spacingLeft=4;spacingRight=4;overflow=hidden;rotatable=0;points=[[0,0.5],[1,0.5]];portConstraint=eastwest;whiteSpace=wrap;" vertex="1" parent="qA75HR39hsxsS02LZcgE-5">
          <mxGeometry y="29" width="230" height="25" as="geometry" />
        </mxCell>
        <mxCell id="qA75HR39hsxsS02LZcgE-27" value="string Type" style="text;html=1;strokeColor=none;fillColor=none;align=left;verticalAlign=middle;spacingLeft=4;spacingRight=4;overflow=hidden;rotatable=0;points=[[0,0.5],[1,0.5]];portConstraint=eastwest;whiteSpace=wrap;" vertex="1" parent="qA75HR39hsxsS02LZcgE-5">
          <mxGeometry y="54" width="230" height="25" as="geometry" />
        </mxCell>
        <mxCell id="qA75HR39hsxsS02LZcgE-28" value="string Key" style="text;html=1;strokeColor=none;fillColor=none;align=left;verticalAlign=middle;spacingLeft=4;spacingRight=4;overflow=hidden;rotatable=0;points=[[0,0.5],[1,0.5]];portConstraint=eastwest;whiteSpace=wrap;" vertex="1" parent="qA75HR39hsxsS02LZcgE-5">
          <mxGeometry y="79" width="230" height="25" as="geometry" />
        </mxCell>
        <mxCell id="qA75HR39hsxsS02LZcgE-8" value="LiteDbProgramMeta" style="swimlane;fontStyle=1;align=center;verticalAlign=middle;childLayout=stackLayout;horizontal=1;startSize=29;horizontalStack=0;resizeParent=1;resizeParentMax=0;resizeLast=0;collapsible=0;marginBottom=0;html=1;whiteSpace=wrap;" vertex="1" parent="1">
          <mxGeometry x="-410" y="230" width="360" height="129" as="geometry" />
        </mxCell>
        <mxCell id="qA75HR39hsxsS02LZcgE-22" value="MetadataKey Key" style="text;html=1;strokeColor=none;fillColor=none;align=left;verticalAlign=middle;spacingLeft=4;spacingRight=4;overflow=hidden;rotatable=0;points=[[0,0.5],[1,0.5]];portConstraint=eastwest;whiteSpace=wrap;" vertex="1" parent="qA75HR39hsxsS02LZcgE-8">
          <mxGeometry y="29" width="360" height="25" as="geometry" />
        </mxCell>
        <mxCell id="qA75HR39hsxsS02LZcgE-23" value="MetadataType MetadataType" style="text;html=1;strokeColor=none;fillColor=none;align=left;verticalAlign=middle;spacingLeft=4;spacingRight=4;overflow=hidden;rotatable=0;points=[[0,0.5],[1,0.5]];portConstraint=eastwest;whiteSpace=wrap;" vertex="1" parent="qA75HR39hsxsS02LZcgE-8">
          <mxGeometry y="54" width="360" height="25" as="geometry" />
        </mxCell>
        <mxCell id="qA75HR39hsxsS02LZcgE-10" value="Guid SpecificationId" style="text;html=1;strokeColor=none;fillColor=none;align=left;verticalAlign=middle;spacingLeft=4;spacingRight=4;overflow=hidden;rotatable=0;points=[[0,0.5],[1,0.5]];portConstraint=eastwest;whiteSpace=wrap;" vertex="1" parent="qA75HR39hsxsS02LZcgE-8">
          <mxGeometry y="79" width="360" height="25" as="geometry" />
        </mxCell>
        <mxCell id="qA75HR39hsxsS02LZcgE-35" value="object Value" style="text;html=1;strokeColor=none;fillColor=none;align=left;verticalAlign=middle;spacingLeft=4;spacingRight=4;overflow=hidden;rotatable=0;points=[[0,0.5],[1,0.5]];portConstraint=eastwest;whiteSpace=wrap;" vertex="1" parent="qA75HR39hsxsS02LZcgE-8">
          <mxGeometry y="104" width="360" height="25" as="geometry" />
        </mxCell>
        <mxCell id="qA75HR39hsxsS02LZcgE-11" value="LiteDbSessionMeta" style="swimlane;fontStyle=1;align=center;verticalAlign=middle;childLayout=stackLayout;horizontal=1;startSize=29;horizontalStack=0;resizeParent=1;resizeParentMax=0;resizeLast=0;collapsible=0;marginBottom=0;html=1;whiteSpace=wrap;" vertex="1" parent="1">
          <mxGeometry x="680" width="340" height="129" as="geometry" />
        </mxCell>
        <mxCell id="qA75HR39hsxsS02LZcgE-12" value="&amp;nbsp;MetadataKey Key" style="text;html=1;strokeColor=none;fillColor=none;align=left;verticalAlign=middle;spacingLeft=4;spacingRight=4;overflow=hidden;rotatable=0;points=[[0,0.5],[1,0.5]];portConstraint=eastwest;whiteSpace=wrap;" vertex="1" parent="qA75HR39hsxsS02LZcgE-11">
          <mxGeometry y="29" width="340" height="25" as="geometry" />
        </mxCell>
        <mxCell id="qA75HR39hsxsS02LZcgE-13" value="MetadataType MetadataType" style="text;html=1;strokeColor=none;fillColor=none;align=left;verticalAlign=middle;spacingLeft=4;spacingRight=4;overflow=hidden;rotatable=0;points=[[0,0.5],[1,0.5]];portConstraint=eastwest;whiteSpace=wrap;" vertex="1" parent="qA75HR39hsxsS02LZcgE-11">
          <mxGeometry y="54" width="340" height="25" as="geometry" />
        </mxCell>
        <mxCell id="qA75HR39hsxsS02LZcgE-19" value="object Value" style="text;html=1;strokeColor=none;fillColor=none;align=left;verticalAlign=middle;spacingLeft=4;spacingRight=4;overflow=hidden;rotatable=0;points=[[0,0.5],[1,0.5]];portConstraint=eastwest;whiteSpace=wrap;" vertex="1" parent="qA75HR39hsxsS02LZcgE-11">
          <mxGeometry y="79" width="340" height="25" as="geometry" />
        </mxCell>
        <mxCell id="qA75HR39hsxsS02LZcgE-20" value="Guid SessionId" style="text;html=1;strokeColor=none;fillColor=none;align=left;verticalAlign=middle;spacingLeft=4;spacingRight=4;overflow=hidden;rotatable=0;points=[[0,0.5],[1,0.5]];portConstraint=eastwest;whiteSpace=wrap;" vertex="1" parent="qA75HR39hsxsS02LZcgE-11">
          <mxGeometry y="104" width="340" height="25" as="geometry" />
        </mxCell>
        <mxCell id="qA75HR39hsxsS02LZcgE-25" style="edgeStyle=orthogonalEdgeStyle;rounded=0;orthogonalLoop=1;jettySize=auto;html=1;" edge="1" parent="1" source="qA75HR39hsxsS02LZcgE-20" target="qA75HR39hsxsS02LZcgE-2">
          <mxGeometry relative="1" as="geometry" />
        </mxCell>
        <mxCell id="qA75HR39hsxsS02LZcgE-26" style="edgeStyle=orthogonalEdgeStyle;rounded=0;orthogonalLoop=1;jettySize=auto;html=1;" edge="1" parent="1" source="qA75HR39hsxsS02LZcgE-10" target="qA75HR39hsxsS02LZcgE-5">
          <mxGeometry relative="1" as="geometry">
            <Array as="points">
              <mxPoint x="100" y="322" />
            </Array>
          </mxGeometry>
        </mxCell>
        <mxCell id="qA75HR39hsxsS02LZcgE-30" style="edgeStyle=orthogonalEdgeStyle;rounded=0;orthogonalLoop=1;jettySize=auto;html=1;" edge="1" parent="1" source="qA75HR39hsxsS02LZcgE-15" target="qA75HR39hsxsS02LZcgE-5">
          <mxGeometry relative="1" as="geometry" />
        </mxCell>
        <mxCell id="qA75HR39hsxsS02LZcgE-32" style="edgeStyle=orthogonalEdgeStyle;rounded=0;orthogonalLoop=1;jettySize=auto;html=1;endArrow=none;endFill=0;dashed=1;" edge="1" parent="1" source="qA75HR39hsxsS02LZcgE-31" target="qA75HR39hsxsS02LZcgE-5">
          <mxGeometry relative="1" as="geometry" />
        </mxCell>
        <mxCell id="qA75HR39hsxsS02LZcgE-31" value="This should be number of types of programs&amp;nbsp;" style="shape=note;whiteSpace=wrap;html=1;backgroundOutline=1;darkOpacity=0.05;" vertex="1" parent="1">
          <mxGeometry x="610" y="602" width="100" height="100" as="geometry" />
        </mxCell>
        <mxCell id="qA75HR39hsxsS02LZcgE-34" style="edgeStyle=orthogonalEdgeStyle;rounded=0;orthogonalLoop=1;jettySize=auto;html=1;endArrow=none;endFill=0;dashed=1;" edge="1" parent="1" source="qA75HR39hsxsS02LZcgE-33" target="qA75HR39hsxsS02LZcgE-2">
          <mxGeometry relative="1" as="geometry" />
        </mxCell>
        <mxCell id="qA75HR39hsxsS02LZcgE-33" value="This should number of measurements + (Session which are not finalized)" style="shape=note;whiteSpace=wrap;html=1;backgroundOutline=1;darkOpacity=0.05;" vertex="1" parent="1">
          <mxGeometry x="-340" y="55" width="250" height="89" as="geometry" />
        </mxCell>
        <mxCell id="qA75HR39hsxsS02LZcgE-37" style="edgeStyle=orthogonalEdgeStyle;rounded=0;orthogonalLoop=1;jettySize=auto;html=1;endArrow=none;endFill=0;dashed=1;" edge="1" parent="1" source="qA75HR39hsxsS02LZcgE-36" target="qA75HR39hsxsS02LZcgE-8">
          <mxGeometry relative="1" as="geometry" />
        </mxCell>
        <mxCell id="qA75HR39hsxsS02LZcgE-36" value="This is structure is used to remember user choices for particular type of program. Like &quot;LastUsedDevices&quot;" style="shape=note;whiteSpace=wrap;html=1;backgroundOutline=1;fontColor=#000000;darkOpacity=0.05;fillColor=#FFF9B2;strokeColor=none;fillStyle=solid;direction=west;gradientDirection=north;gradientColor=#FFF2A1;shadow=1;size=20;pointerEvents=1;" vertex="1" parent="1">
          <mxGeometry x="-650" y="214.5" width="140" height="160" as="geometry" />
        </mxCell>
        <mxCell id="qA75HR39hsxsS02LZcgE-39" style="edgeStyle=orthogonalEdgeStyle;rounded=0;orthogonalLoop=1;jettySize=auto;html=1;endArrow=none;endFill=0;dashed=1;" edge="1" parent="1" source="qA75HR39hsxsS02LZcgE-38" target="qA75HR39hsxsS02LZcgE-11">
          <mxGeometry relative="1" as="geometry" />
        </mxCell>
        <mxCell id="qA75HR39hsxsS02LZcgE-38" value="&lt;div style=&quot;text-align: left;&quot;&gt;&lt;span style=&quot;background-color: transparent; color: light-dark(rgb(0, 0, 0), rgb(237, 237, 237));&quot;&gt;This structure stores all of meta data captured or required during a session and this data is available for all session.&lt;/span&gt;&lt;/div&gt;&lt;div style=&quot;text-align: left;&quot;&gt;&lt;br&gt;&lt;/div&gt;&lt;div style=&quot;text-align: left;&quot;&gt;Ex&lt;/div&gt;&lt;div style=&quot;text-align: left;&quot;&gt;1.Title&lt;/div&gt;&lt;div style=&quot;text-align: left;&quot;&gt;2.UsedDevices&lt;/div&gt;&lt;div style=&quot;text-align: left;&quot;&gt;3.RerferenceMode&lt;/div&gt;&lt;div style=&quot;text-align: left;&quot;&gt;4.PointInterval&lt;/div&gt;&lt;div style=&quot;text-align: left;&quot;&gt;5.Operator&lt;/div&gt;&lt;div style=&quot;text-align: left;&quot;&gt;6.NumberofCoordinatesX&lt;/div&gt;&lt;div style=&quot;text-align: left;&quot;&gt;7.MeasurementSnapshot&lt;/div&gt;&lt;div style=&quot;text-align: left;&quot;&gt;8.FilterPrecision&lt;/div&gt;&lt;div style=&quot;text-align: left;&quot;&gt;9.and more...&lt;/div&gt;&lt;div style=&quot;text-align: left;&quot;&gt;&lt;br&gt;&lt;/div&gt;&lt;div style=&quot;text-align: left;&quot;&gt;&lt;br&gt;&lt;/div&gt;" style="shape=note;whiteSpace=wrap;html=1;backgroundOutline=1;fontColor=#000000;darkOpacity=0.05;fillColor=#FFF9B2;strokeColor=none;fillStyle=solid;direction=west;gradientDirection=north;gradientColor=#FFF2A1;shadow=1;size=20;pointerEvents=1;" vertex="1" parent="1">
          <mxGeometry x="1250" width="279" height="256" as="geometry" />
        </mxCell>
      </root>
    </mxGraphModel>
  </diagram>
</mxfile>
